[Scene-003] Analyzing scene content with Gemini...
Uploading /Users/shreybirmiwal/projects/GCinema/pipeline/output/CC-Girl-Scene/Scene-003/clip.mp4 ...
  Waiting for Gemini to process video ...
Upload complete: https://generativelanguage.googleapis.com/v1beta/files/i4cc8nmjj4yy
Generating description with gemini-3.1-pro-preview ...
Description written to: /Users/shreybirmiwal/projects/GCinema/pipeline/output/CC-Girl-Scene/Scene-003/description.txt
[Scene-003] Description saved.
[Scene-003] Extracting first frame as keyframe...
Frame saved to: /Users/shreybirmiwal/projects/GCinema/pipeline/output/CC-Girl-Scene/Scene-003/frame0.png
[Scene-003] Keyframe saved: frame0.png
[Scene-003] Waiting for Scene-002 colorization...
[Scene-003] Colorizing keyframe with Gemini...
[Scene-003] Using color reference from Scene-002
Input:     /Users/shreybirmiwal/projects/GCinema/pipeline/output/CC-Girl-Scene/Scene-003/frame0.png
Input2:    (none)
Reference: /Users/shreybirmiwal/projects/GCinema/pipeline/output/CC-Girl-Scene/Scene-002/frame0_colorized.jpg
Model:     gemini-3.1-flash-image-preview
Colorizing ...
Colorized image saved to: /Users/shreybirmiwal/projects/GCinema/pipeline/output/CC-Girl-Scene/Scene-003/frame0_colorized.jpg
[Scene-003] Colorized keyframe saved.
[Scene-003] Generating colorized video (11s target)...
Image:       /Users/shreybirmiwal/projects/GCinema/pipeline/output/CC-Girl-Scene/Scene-003/frame0_colorized.jpg
Description: /Users/shreybirmiwal/projects/GCinema/pipeline/output/CC-Girl-Scene/Scene-003/description.txt
Backend:     auto
Duration:    11s
Output:      /Users/shreybirmiwal/projects/GCinema/pipeline/output/CC-Girl-Scene/Scene-003/frame0_colorized_generated.mp4
Generating via Veo (veo-3.1-generate-preview) ...
Waiting for Veo to generate video......
Video saved to: /Users/shreybirmiwal/projects/GCinema/pipeline/output/CC-Girl-Scene/Scene-003/frame0_colorized_generated.mp4
[Scene-003] Generated video saved.
[Scene-003] Time-stretching to match original clip duration...
ffmpeg version 8.0 Copyright (c) 2000-2025 the FFmpeg developers
  built with Apple clang version 17.0.0 (clang-1700.0.13.3)
  configuration: --prefix=/opt/homebrew/Cellar/ffmpeg/8.0_1 --enable-shared --enable-pthreads --enable-version3 --cc=clang --host-cflags= --host-ldflags='-Wl,-ld_classic' --enable-ffplay --enable-gnutls --enable-gpl --enable-libaom --enable-libaribb24 --enable-libbluray --enable-libdav1d --enable-libharfbuzz --enable-libjxl --enable-libmp3lame --enable-libopus --enable-librav1e --enable-librist --enable-librubberband --enable-libsnappy --enable-libsrt --enable-libssh --enable-libsvtav1 --enable-libtesseract --enable-libtheora --enable-libvidstab --enable-libvmaf --enable-libvorbis --enable-libvpx --enable-libwebp --enable-libx264 --enable-libx265 --enable-libxml2 --enable-libxvid --enable-lzma --enable-libfontconfig --enable-libfreetype --enable-frei0r --enable-libass --enable-libopencore-amrnb --enable-libopencore-amrwb --enable-libopenjpeg --enable-libspeex --enable-libsoxr --enable-libzmq --enable-libzimg --disable-libjack --disable-indev=jack --enable-videotoolbox --enable-audiotoolbox --enable-neon
  libavutil      60.  8.100 / 60.  8.100
  libavcodec     62. 11.100 / 62. 11.100
  libavformat    62.  3.100 / 62.  3.100
  libavdevice    62.  1.100 / 62.  1.100
  libavfilter    11.  4.100 / 11.  4.100
  libswscale      9.  1.100 /  9.  1.100
  libswresample   6.  1.100 /  6.  1.100
Input #0, mov,mp4,m4a,3gp,3g2,mj2, from '/Users/shreybirmiwal/projects/GCinema/pipeline/output/CC-Girl-Scene/Scene-003/frame0_colorized_generated.mp4':
  Metadata:
    major_brand     : isom
    minor_version   : 512
    compatible_brands: isomiso2avc1mp41
    encoder         : Google
  Duration: 00:00:06.00, start: 0.000000, bitrate: 3976 kb/s
  Stream #0:0[0x1](und): Video: h264 (High) (avc1 / 0x31637661), yuv420p(progressive), 1280x720, 3819 kb/s, 24 fps, 24 tbr, 12288 tbn (default)
    Metadata:
      handler_name    : VideoHandler
      vendor_id       : [0][0][0][0]
  Stream #0:1[0x2](und): Audio: aac (LC) (mp4a / 0x6134706D), 48000 Hz, stereo, fltp, 140 kb/s (default)
    Metadata:
      handler_name    : SoundHandler
      vendor_id       : [0][0][0][0]
Stream mapping:
  Stream #0:0 -> #0:0 (h264 (native) -> h264 (libx264))
  Stream #0:1 -> #0:1 (aac (native) -> aac (native))
Press [q] to stop, [?] for help
[libx264 @ 0xa35045180] using cpu capabilities: ARMv8 NEON DotProd I8MM
[libx264 @ 0xa35045180] profile High, level 3.1, 4:2:0, 8-bit
[libx264 @ 0xa35045180] 264 - core 165 r3222 b35605a - H.264/MPEG-4 AVC codec - Copyleft 2003-2025 - http://www.videolan.org/x264.html - options: cabac=1 ref=3 deblock=1:0:0 analyse=0x3:0x113 me=hex subme=7 psy=1 psy_rd=1.00:0.00 mixed_ref=1 me_range=16 chroma_me=1 trellis=1 8x8dct=1 cqm=0 deadzone=21,11 fast_pskip=1 chroma_qp_offset=-2 threads=21 lookahead_threads=3 sliced_threads=0 nr=0 decimate=1 interlaced=0 bluray_compat=0 constrained_intra=0 bframes=3 b_pyramid=2 b_adapt=1 b_bias=0 direct=1 weightb=1 open_gop=0 weightp=2 keyint=250 keyint_min=24 scenecut=40 intra_refresh=0 rc_lookahead=40 rc=crf mbtree=1 crf=23.0 qcomp=0.60 qpmin=0 qpmax=69 qpstep=4 ip_ratio=1.40 aq=1:1.00
Output #0, mp4, to '/Users/shreybirmiwal/projects/GCinema/pipeline/output/CC-Girl-Scene/Scene-003/frame0_colorized_generated_matched.mp4':
  Metadata:
    major_brand     : isom
    minor_version   : 512
    compatible_brands: isomiso2avc1mp41
    encoder         : Lavf62.3.100
  Stream #0:0(und): Video: h264 (avc1 / 0x31637661), yuv420p(tv, progressive), 1280x720, q=2-31, 24 fps, 12288 tbn (default)
    Metadata:
      encoder         : Lavc62.11.100 libx264
      handler_name    : VideoHandler
      vendor_id       : [0][0][0][0]
    Side data:
      cpb: bitrate max/min/avg: 0/0/0 buffer size: 0 vbv_delay: N/A
  Stream #0:1(und): Audio: aac (LC) (mp4a / 0x6134706D), 48000 Hz, stereo, fltp, 128 kb/s (default)
    Metadata:
      encoder         : Lavc62.11.100 aac
      handler_name    : SoundHandler
      vendor_id       : [0][0][0][0]
frame=   32 fps=0.0 q=26.0 size=     256KiB time=00:00:02.04 bitrate=1027.4kbits/s speed=4.04x elapsed=0:00:00.50    frame=  102 fps=101 q=27.0 size=    1792KiB time=N/A bitrate=N/A speed=N/A elapsed=0:00:01.01    [out#0/mp4 @ 0xa34c843c0] video:2269KiB audio:159KiB subtitle:0KiB other streams:0KiB global headers:0KiB muxing overhead: 0.328765%
frame=  144 fps=123 q=-1.0 Lsize=    2437KiB time=00:00:09.83 bitrate=2029.9kbits/s speed=8.43x elapsed=0:00:01.16    
[libx264 @ 0xa35045180] frame I:1     Avg QP:20.91  size: 92770
[libx264 @ 0xa35045180] frame P:48    Avg QP:22.35  size: 32559
[libx264 @ 0xa35045180] frame B:95    Avg QP:26.09  size:  7025
[libx264 @ 0xa35045180] consecutive B-frames:  5.6% 16.7%  8.3% 69.4%
[libx264 @ 0xa35045180] mb I  I16..4:  7.8% 68.5% 23.8%
[libx264 @ 0xa35045180] mb P  I16..4:  2.1% 12.0%  1.8%  P16..4: 38.9% 20.4% 11.8%  0.0%  0.0%    skip:12.9%
[libx264 @ 0xa35045180] mb B  I16..4:  0.4%  1.3%  0.2%  B16..8: 38.8%  5.8%  1.4%  direct: 3.9%  skip:48.3%  L0:40.7% L1:45.4% BI:13.9%
[libx264 @ 0xa35045180] 8x8 transform intra:73.5% inter:73.1%
[libx264 @ 0xa35045180] coded y,uvDC,uvAC intra: 68.8% 70.8% 20.2% inter: 22.8% 18.5% 0.3%
[libx264 @ 0xa35045180] i16 v,h,dc,p: 46% 17%  7% 30%
[libx264 @ 0xa35045180] i8 v,h,dc,ddl,ddr,vr,hd,vl,hu: 28% 21% 13%  5%  5%  7%  6%  6%  8%
[libx264 @ 0xa35045180] i4 v,h,dc,ddl,ddr,vr,hd,vl,hu: 29% 20% 10%  5%  7%  9%  7%  6%  6%
[libx264 @ 0xa35045180] i8c dc,h,v,p: 44% 21% 28%  7%
[libx264 @ 0xa35045180] Weighted P-Frames: Y:6.2% UV:6.2%
[libx264 @ 0xa35045180] ref P L0: 60.4% 18.9% 16.5%  4.1%  0.1%
[libx264 @ 0xa35045180] ref B L0: 92.5%  6.5%  0.9%
[libx264 @ 0xa35045180] ref B L1: 97.6%  2.4%
[libx264 @ 0xa35045180] kb/s:1866.19
[aac @ 0xa350b1180] Qavg: 622.953
Original duration:   10.000s
Colorized duration:  6.000s
PTS factor:          1.6667x  (target: 10.000s)
Running: ffmpeg -y -i /Users/shreybirmiwal/projects/GCinema/pipeline/output/CC-Girl-Scene/Scene-003/frame0_colorized_generated.mp4 -vf setpts=1.666667*PTS -af atempo=0.600000 /Users/shreybirmiwal/projects/GCinema/pipeline/output/CC-Girl-Scene/Scene-003/frame0_colorized_generated_matched.mp4
Output saved to: /Users/shreybirmiwal/projects/GCinema/pipeline/output/CC-Girl-Scene/Scene-003/frame0_colorized_generated_matched.mp4
[Scene-003] Matched video saved.
[Scene-003] All steps complete!
